%TF.GenerationSoftware,KiCad,Pcbnew,(6.0.5)*%
%TF.CreationDate,2023-06-09T01:00:50+03:00*%
%TF.ProjectId,Processor-ALU,50726f63-6573-4736-9f72-2d414c552e6b,rev?*%
%TF.SameCoordinates,Original*%
%TF.FileFunction,Plated,1,2,PTH,Drill*%
%TF.FilePolarity,Positive*%
%FSLAX46Y46*%
G04 Gerber Fmt 4.6, Leading zero omitted, Abs format (unit mm)*
G04 Created by KiCad (PCBNEW (6.0.5)) date 2023-06-09 01:00:50*
%MOMM*%
%LPD*%
G01*
G04 APERTURE LIST*
%TA.AperFunction,ViaDrill*%
%ADD10C,0.300000*%
%TD*%
%TA.AperFunction,ViaDrill*%
%ADD11C,0.340000*%
%TD*%
%TA.AperFunction,ViaDrill*%
%ADD12C,0.400000*%
%TD*%
%TA.AperFunction,ComponentDrill*%
%ADD13C,0.800000*%
%TD*%
%TA.AperFunction,ComponentDrill*%
%ADD14C,1.000000*%
%TD*%
G04 APERTURE END LIST*
D10*
X79200000Y-82000000D03*
X79900000Y-82900000D03*
X80650000Y-82850000D03*
X92250000Y-56850000D03*
X92300000Y-55400000D03*
X92300000Y-56100000D03*
X92350000Y-54650000D03*
X94800000Y-116585000D03*
X95500000Y-114050000D03*
X96200000Y-111505000D03*
X96900000Y-108965000D03*
X97600000Y-53550000D03*
X97750000Y-106425000D03*
X98450000Y-103885000D03*
X99150000Y-101345000D03*
X99850000Y-98800000D03*
X100650000Y-93200000D03*
X105950000Y-72200000D03*
X106750000Y-69700000D03*
X106800000Y-76950000D03*
X106950000Y-93200000D03*
X107600000Y-75500000D03*
X108400000Y-76250000D03*
X110100000Y-89000000D03*
X110985000Y-127900000D03*
X111685000Y-128600000D03*
X112385000Y-129300000D03*
X112650000Y-85500000D03*
X113085000Y-130000000D03*
X113785000Y-130700000D03*
X114485000Y-131400000D03*
X115175000Y-70600000D03*
X115185000Y-132100000D03*
X115885000Y-132800000D03*
X116450000Y-71300000D03*
X117150000Y-103200000D03*
X117700000Y-79100000D03*
X117700000Y-122300000D03*
X118700000Y-92000000D03*
X119000000Y-87600000D03*
X120250000Y-86200000D03*
X120250000Y-123000000D03*
X120600000Y-103250000D03*
X121950000Y-77700000D03*
X122150000Y-92000000D03*
X122750000Y-123700000D03*
X123950000Y-103300000D03*
X124050000Y-72000000D03*
X125300000Y-72700000D03*
X125300000Y-124400000D03*
X125600000Y-92000000D03*
X126600000Y-86900000D03*
X127400000Y-103250000D03*
X127850000Y-125100000D03*
X129050000Y-92000000D03*
X129475000Y-74225000D03*
X130400000Y-125800000D03*
X130800000Y-103250000D03*
X132500000Y-92000000D03*
X132900000Y-126500000D03*
X133600000Y-88300000D03*
X134200000Y-103250000D03*
X135450000Y-127200000D03*
X135950000Y-92000000D03*
X137400000Y-74100000D03*
X137600000Y-103250000D03*
X138100000Y-81900000D03*
X139000000Y-87000000D03*
X139100000Y-79800000D03*
X139400000Y-92000000D03*
X139950000Y-90400000D03*
X141000000Y-103200000D03*
X141200000Y-89000000D03*
X141250000Y-69700000D03*
X141300000Y-68950000D03*
X142150000Y-87000000D03*
X142295000Y-132735000D03*
X142850000Y-92000000D03*
X142995000Y-132035000D03*
X143695000Y-131335000D03*
X143750000Y-81200000D03*
X144395000Y-130635000D03*
X145095000Y-129935000D03*
X145150000Y-94450000D03*
X145795000Y-129235000D03*
X146495000Y-128535000D03*
X147000000Y-95450000D03*
X147100000Y-85900000D03*
X147195000Y-127835000D03*
X147550000Y-74000000D03*
X148400000Y-69700000D03*
X148450000Y-68950000D03*
X150100000Y-89700000D03*
X151850000Y-117650000D03*
X154200000Y-117650000D03*
X158335000Y-116485000D03*
X159045000Y-113945000D03*
X159745000Y-111405000D03*
X159750000Y-58750000D03*
X160450000Y-108865000D03*
X161050000Y-64165000D03*
X161050000Y-71785000D03*
X161050000Y-82615000D03*
X161050000Y-90200000D03*
X161250000Y-106325000D03*
X161950000Y-103785000D03*
X162650000Y-101245000D03*
X163355000Y-98705000D03*
X169850000Y-78800000D03*
X170525000Y-80075000D03*
X171250000Y-83900000D03*
X171950000Y-87700000D03*
X172650000Y-61650000D03*
X173350000Y-60350000D03*
X174050000Y-65450000D03*
X174750000Y-69250000D03*
D11*
X109220000Y-126185000D03*
D12*
X104000000Y-133800000D03*
X109250000Y-135150000D03*
X138000000Y-135150000D03*
X172100000Y-135100000D03*
X172754290Y-126108228D03*
D13*
%TO.C,U1*%
X85405000Y-96265000D03*
X85405000Y-98805000D03*
X85405000Y-101345000D03*
X85405000Y-103885000D03*
X85405000Y-106425000D03*
X85405000Y-108965000D03*
X85405000Y-111505000D03*
X85405000Y-114045000D03*
X85405000Y-116585000D03*
X85405000Y-119125000D03*
X93025000Y-96265000D03*
X93025000Y-98805000D03*
X93025000Y-101345000D03*
X93025000Y-103885000D03*
X93025000Y-106425000D03*
X93025000Y-108965000D03*
X93025000Y-111505000D03*
X93025000Y-114045000D03*
X93025000Y-116585000D03*
X93025000Y-119125000D03*
%TO.C,U2*%
X97525000Y-58855000D03*
X97525000Y-66475000D03*
X100065000Y-58855000D03*
X100065000Y-66475000D03*
%TO.C,U3*%
X101645000Y-96265000D03*
X101645000Y-98805000D03*
X101645000Y-101345000D03*
X101645000Y-103885000D03*
X101645000Y-106425000D03*
X101645000Y-108965000D03*
X101645000Y-111505000D03*
X101645000Y-114045000D03*
X101645000Y-116585000D03*
X101645000Y-119125000D03*
%TO.C,U2*%
X102605000Y-58855000D03*
X102605000Y-66475000D03*
X105145000Y-58855000D03*
X105145000Y-66475000D03*
X107685000Y-58855000D03*
X107685000Y-66475000D03*
%TO.C,U3*%
X109265000Y-96265000D03*
X109265000Y-98805000D03*
X109265000Y-101345000D03*
X109265000Y-103885000D03*
X109265000Y-106425000D03*
X109265000Y-108965000D03*
X109265000Y-111505000D03*
X109265000Y-114045000D03*
X109265000Y-116585000D03*
X109265000Y-119125000D03*
%TO.C,U8*%
X110095000Y-75975000D03*
X110095000Y-83595000D03*
%TO.C,U2*%
X110225000Y-58855000D03*
X110225000Y-66475000D03*
%TO.C,U8*%
X112635000Y-75975000D03*
X112635000Y-83595000D03*
%TO.C,U2*%
X112765000Y-58855000D03*
X112765000Y-66475000D03*
%TO.C,U8*%
X115175000Y-75975000D03*
X115175000Y-83595000D03*
%TO.C,U2*%
X115305000Y-58855000D03*
X115305000Y-66475000D03*
%TO.C,U6*%
X117665000Y-112875000D03*
X117665000Y-120495000D03*
%TO.C,U8*%
X117715000Y-75975000D03*
X117715000Y-83595000D03*
%TO.C,U2*%
X117845000Y-58855000D03*
X117845000Y-66475000D03*
%TO.C,U6*%
X120205000Y-112875000D03*
X120205000Y-120495000D03*
%TO.C,U8*%
X120255000Y-75975000D03*
X120255000Y-83595000D03*
%TO.C,U2*%
X120385000Y-58855000D03*
X120385000Y-66475000D03*
%TO.C,U6*%
X122745000Y-112875000D03*
X122745000Y-120495000D03*
%TO.C,U8*%
X122795000Y-75975000D03*
X122795000Y-83595000D03*
%TO.C,U6*%
X125285000Y-112875000D03*
X125285000Y-120495000D03*
%TO.C,U8*%
X125335000Y-75975000D03*
X125335000Y-83595000D03*
%TO.C,U6*%
X127825000Y-112875000D03*
X127825000Y-120495000D03*
%TO.C,U8*%
X127875000Y-75975000D03*
X127875000Y-83595000D03*
%TO.C,U6*%
X130365000Y-112875000D03*
X130365000Y-120495000D03*
%TO.C,U5*%
X131045000Y-75975000D03*
X131045000Y-83595000D03*
%TO.C,U6*%
X132905000Y-112875000D03*
X132905000Y-120495000D03*
%TO.C,U5*%
X133585000Y-75975000D03*
X133585000Y-83595000D03*
%TO.C,U6*%
X135445000Y-112875000D03*
X135445000Y-120495000D03*
%TO.C,U5*%
X136125000Y-75975000D03*
X136125000Y-83595000D03*
%TO.C,U6*%
X137985000Y-112875000D03*
X137985000Y-120495000D03*
%TO.C,U5*%
X138665000Y-75975000D03*
X138665000Y-83595000D03*
%TO.C,U6*%
X140525000Y-112875000D03*
X140525000Y-120495000D03*
%TO.C,U5*%
X141205000Y-75975000D03*
X141205000Y-83595000D03*
X143745000Y-75975000D03*
X143745000Y-83595000D03*
X146285000Y-75975000D03*
X146285000Y-83595000D03*
X148825000Y-75975000D03*
X148825000Y-83595000D03*
%TO.C,U10*%
X148955000Y-96165000D03*
X148955000Y-98705000D03*
X148955000Y-101245000D03*
X148955000Y-103785000D03*
X148955000Y-106325000D03*
X148955000Y-108865000D03*
X148955000Y-111405000D03*
X148955000Y-113945000D03*
X148955000Y-116485000D03*
X148955000Y-119025000D03*
X156575000Y-96165000D03*
X156575000Y-98705000D03*
X156575000Y-101245000D03*
X156575000Y-103785000D03*
X156575000Y-106325000D03*
X156575000Y-108865000D03*
X156575000Y-111405000D03*
X156575000Y-113945000D03*
X156575000Y-116485000D03*
X156575000Y-119025000D03*
%TO.C,U7*%
X157005000Y-59085000D03*
X157005000Y-61625000D03*
X157005000Y-64165000D03*
X157005000Y-66705000D03*
X157005000Y-69245000D03*
X157005000Y-71785000D03*
X157005000Y-74325000D03*
%TO.C,U4*%
X157005000Y-77535000D03*
X157005000Y-80075000D03*
X157005000Y-82615000D03*
X157005000Y-85155000D03*
X157005000Y-87695000D03*
X157005000Y-90235000D03*
X157005000Y-92775000D03*
%TO.C,U7*%
X164625000Y-59085000D03*
X164625000Y-61625000D03*
X164625000Y-64165000D03*
X164625000Y-66705000D03*
X164625000Y-69245000D03*
X164625000Y-71785000D03*
X164625000Y-74325000D03*
%TO.C,U4*%
X164625000Y-77535000D03*
X164625000Y-80075000D03*
X164625000Y-82615000D03*
X164625000Y-85155000D03*
X164625000Y-87695000D03*
X164625000Y-90235000D03*
X164625000Y-92775000D03*
%TO.C,U9*%
X165195000Y-96165000D03*
X165195000Y-98705000D03*
X165195000Y-101245000D03*
X165195000Y-103785000D03*
X165195000Y-106325000D03*
X165195000Y-108865000D03*
X165195000Y-111405000D03*
X165195000Y-113945000D03*
X165195000Y-116485000D03*
X165195000Y-119025000D03*
X172815000Y-96165000D03*
X172815000Y-98705000D03*
X172815000Y-101245000D03*
X172815000Y-103785000D03*
X172815000Y-106325000D03*
X172815000Y-108865000D03*
X172815000Y-111405000D03*
X172815000Y-113945000D03*
X172815000Y-116485000D03*
X172815000Y-119025000D03*
D14*
%TO.C,P1*%
X83900000Y-84595000D03*
X83900000Y-87135000D03*
X83900000Y-89675000D03*
X83900000Y-92215000D03*
%TO.C,P4*%
X83925000Y-61170000D03*
X83925000Y-63710000D03*
X83925000Y-66250000D03*
X83925000Y-68790000D03*
X83925000Y-71330000D03*
X83925000Y-73870000D03*
X83925000Y-76410000D03*
X83925000Y-78950000D03*
%TO.C,P1*%
X86440000Y-84595000D03*
X86440000Y-87135000D03*
X86440000Y-89675000D03*
X86440000Y-92215000D03*
%TO.C,P4*%
X86465000Y-61170000D03*
X86465000Y-63710000D03*
X86465000Y-66250000D03*
X86465000Y-68790000D03*
X86465000Y-71330000D03*
X86465000Y-73870000D03*
X86465000Y-76410000D03*
X86465000Y-78950000D03*
%TO.C,P2*%
X117670000Y-129025000D03*
%TO.C,P3*%
X117670000Y-131575000D03*
%TO.C,P2*%
X120210000Y-129025000D03*
%TO.C,P3*%
X120210000Y-131575000D03*
%TO.C,P2*%
X122750000Y-129025000D03*
%TO.C,P3*%
X122750000Y-131575000D03*
%TO.C,P2*%
X125290000Y-129025000D03*
%TO.C,P3*%
X125290000Y-131575000D03*
%TO.C,P2*%
X127830000Y-129025000D03*
%TO.C,P3*%
X127830000Y-131575000D03*
%TO.C,P2*%
X130370000Y-129025000D03*
%TO.C,P3*%
X130370000Y-131575000D03*
%TO.C,P2*%
X132910000Y-129025000D03*
%TO.C,P3*%
X132910000Y-131575000D03*
%TO.C,P2*%
X135450000Y-129025000D03*
%TO.C,P3*%
X135450000Y-131575000D03*
%TO.C,P2*%
X137990000Y-129025000D03*
%TO.C,P3*%
X137990000Y-131575000D03*
%TO.C,P2*%
X140530000Y-129025000D03*
%TO.C,P3*%
X140530000Y-131575000D03*
M02*
