%TF.GenerationSoftware,KiCad,Pcbnew,(6.0.5)*%
%TF.CreationDate,2023-06-09T01:00:48+03:00*%
%TF.ProjectId,Processor-ALU,50726f63-6573-4736-9f72-2d414c552e6b,rev?*%
%TF.SameCoordinates,Original*%
%TF.FileFunction,Soldermask,Top*%
%TF.FilePolarity,Negative*%
%FSLAX46Y46*%
G04 Gerber Fmt 4.6, Leading zero omitted, Abs format (unit mm)*
G04 Created by KiCad (PCBNEW (6.0.5)) date 2023-06-09 01:00:48*
%MOMM*%
%LPD*%
G01*
G04 APERTURE LIST*
%ADD10R,1.600000X2.400000*%
%ADD11O,1.600000X2.400000*%
%ADD12R,2.200000X2.500000*%
%ADD13R,2.200000X1.550000*%
%ADD14R,2.400000X1.600000*%
%ADD15O,2.400000X1.600000*%
%ADD16R,1.700000X1.700000*%
%ADD17O,1.700000X1.700000*%
%ADD18R,1.550000X2.000000*%
%ADD19R,2.200000X2.200000*%
%ADD20R,2.200000X1.250000*%
G04 APERTURE END LIST*
D10*
%TO.C,U6*%
X140525000Y-112875000D03*
D11*
X137985000Y-112875000D03*
X135445000Y-112875000D03*
X132905000Y-112875000D03*
X130365000Y-112875000D03*
X127825000Y-112875000D03*
X125285000Y-112875000D03*
X122745000Y-112875000D03*
X120205000Y-112875000D03*
X117665000Y-112875000D03*
X117665000Y-120495000D03*
X120205000Y-120495000D03*
X122745000Y-120495000D03*
X125285000Y-120495000D03*
X127825000Y-120495000D03*
X130365000Y-120495000D03*
X132905000Y-120495000D03*
X135445000Y-120495000D03*
X137985000Y-120495000D03*
X140525000Y-120495000D03*
%TD*%
D12*
%TO.C,D46*%
X162554290Y-126108228D03*
D13*
X162554290Y-123533228D03*
%TD*%
D14*
%TO.C,U7*%
X164625000Y-74325000D03*
D15*
X164625000Y-71785000D03*
X164625000Y-69245000D03*
X164625000Y-66705000D03*
X164625000Y-64165000D03*
X164625000Y-61625000D03*
X164625000Y-59085000D03*
X157005000Y-59085000D03*
X157005000Y-61625000D03*
X157005000Y-64165000D03*
X157005000Y-66705000D03*
X157005000Y-69245000D03*
X157005000Y-71785000D03*
X157005000Y-74325000D03*
%TD*%
D14*
%TO.C,U3*%
X109265000Y-119125000D03*
D15*
X109265000Y-116585000D03*
X109265000Y-114045000D03*
X109265000Y-111505000D03*
X109265000Y-108965000D03*
X109265000Y-106425000D03*
X109265000Y-103885000D03*
X109265000Y-101345000D03*
X109265000Y-98805000D03*
X109265000Y-96265000D03*
X101645000Y-96265000D03*
X101645000Y-98805000D03*
X101645000Y-101345000D03*
X101645000Y-103885000D03*
X101645000Y-106425000D03*
X101645000Y-108965000D03*
X101645000Y-111505000D03*
X101645000Y-114045000D03*
X101645000Y-116585000D03*
X101645000Y-119125000D03*
%TD*%
D12*
%TO.C,D38*%
X127400000Y-105800000D03*
D13*
X127400000Y-103225000D03*
%TD*%
D16*
%TO.C,P1*%
X83900000Y-84595000D03*
D17*
X86440000Y-84595000D03*
X83900000Y-87135000D03*
X86440000Y-87135000D03*
X83900000Y-89675000D03*
X86440000Y-89675000D03*
X83900000Y-92215000D03*
X86440000Y-92215000D03*
%TD*%
D18*
%TO.C,D16*%
X118700000Y-92000000D03*
X118700000Y-96200000D03*
%TD*%
%TO.C,D29*%
X135950000Y-92000000D03*
X135950000Y-96200000D03*
%TD*%
%TO.C,D30*%
X132500000Y-92000000D03*
X132500000Y-96200000D03*
%TD*%
D12*
%TO.C,D12*%
X92220000Y-126185000D03*
D13*
X92220000Y-123610000D03*
%TD*%
D12*
%TO.C,D15*%
X102420000Y-126185000D03*
D13*
X102420000Y-123610000D03*
%TD*%
D10*
%TO.C,U2*%
X97525000Y-66475000D03*
D11*
X100065000Y-66475000D03*
X102605000Y-66475000D03*
X105145000Y-66475000D03*
X107685000Y-66475000D03*
X110225000Y-66475000D03*
X112765000Y-66475000D03*
X115305000Y-66475000D03*
X117845000Y-66475000D03*
X120385000Y-66475000D03*
X120385000Y-58855000D03*
X117845000Y-58855000D03*
X115305000Y-58855000D03*
X112765000Y-58855000D03*
X110225000Y-58855000D03*
X107685000Y-58855000D03*
X105145000Y-58855000D03*
X102605000Y-58855000D03*
X100065000Y-58855000D03*
X97525000Y-58855000D03*
%TD*%
D16*
%TO.C,P4*%
X83925000Y-61170000D03*
D17*
X86465000Y-61170000D03*
X83925000Y-63710000D03*
X86465000Y-63710000D03*
X83925000Y-66250000D03*
X86465000Y-66250000D03*
X83925000Y-68790000D03*
X86465000Y-68790000D03*
X83925000Y-71330000D03*
X86465000Y-71330000D03*
X83925000Y-73870000D03*
X86465000Y-73870000D03*
X83925000Y-76410000D03*
X86465000Y-76410000D03*
X83925000Y-78950000D03*
X86465000Y-78950000D03*
%TD*%
D12*
%TO.C,D49*%
X172754290Y-126108228D03*
D13*
X172754290Y-123533228D03*
%TD*%
D14*
%TO.C,U1*%
X93025000Y-119125000D03*
D15*
X93025000Y-116585000D03*
X93025000Y-114045000D03*
X93025000Y-111505000D03*
X93025000Y-108965000D03*
X93025000Y-106425000D03*
X93025000Y-103885000D03*
X93025000Y-101345000D03*
X93025000Y-98805000D03*
X93025000Y-96265000D03*
X85405000Y-96265000D03*
X85405000Y-98805000D03*
X85405000Y-101345000D03*
X85405000Y-103885000D03*
X85405000Y-106425000D03*
X85405000Y-108965000D03*
X85405000Y-111505000D03*
X85405000Y-114045000D03*
X85405000Y-116585000D03*
X85405000Y-119125000D03*
%TD*%
D12*
%TO.C,D45*%
X159154290Y-126108228D03*
D13*
X159154290Y-123533228D03*
%TD*%
D12*
%TO.C,D13*%
X95620000Y-126185000D03*
D13*
X95620000Y-123610000D03*
%TD*%
D12*
%TO.C,D43*%
X152354290Y-126108228D03*
D13*
X152354290Y-123533228D03*
%TD*%
D12*
%TO.C,D48*%
X169354290Y-126108228D03*
D13*
X169354290Y-123533228D03*
%TD*%
D12*
%TO.C,D36*%
X134200000Y-105800000D03*
D13*
X134200000Y-103225000D03*
%TD*%
D12*
%TO.C,D37*%
X130800000Y-105800000D03*
D13*
X130800000Y-103225000D03*
%TD*%
D12*
%TO.C,D40*%
X120600000Y-105800000D03*
D13*
X120600000Y-103225000D03*
%TD*%
D18*
%TO.C,D31*%
X129050000Y-92000000D03*
X129050000Y-96200000D03*
%TD*%
D12*
%TO.C,D11*%
X88820000Y-126185000D03*
D13*
X88820000Y-123610000D03*
%TD*%
D18*
%TO.C,D28*%
X139400000Y-92000000D03*
X139400000Y-96200000D03*
%TD*%
D14*
%TO.C,U10*%
X156575000Y-119025000D03*
D15*
X156575000Y-116485000D03*
X156575000Y-113945000D03*
X156575000Y-111405000D03*
X156575000Y-108865000D03*
X156575000Y-106325000D03*
X156575000Y-103785000D03*
X156575000Y-101245000D03*
X156575000Y-98705000D03*
X156575000Y-96165000D03*
X148955000Y-96165000D03*
X148955000Y-98705000D03*
X148955000Y-101245000D03*
X148955000Y-103785000D03*
X148955000Y-106325000D03*
X148955000Y-108865000D03*
X148955000Y-111405000D03*
X148955000Y-113945000D03*
X148955000Y-116485000D03*
X148955000Y-119025000D03*
%TD*%
D19*
%TO.C,D2*%
X103650000Y-50225000D03*
D20*
X103650000Y-52500000D03*
%TD*%
D19*
%TO.C,D5*%
X113850000Y-50225000D03*
D20*
X113850000Y-52500000D03*
%TD*%
D14*
%TO.C,U9*%
X172815000Y-119025000D03*
D15*
X172815000Y-116485000D03*
X172815000Y-113945000D03*
X172815000Y-111405000D03*
X172815000Y-108865000D03*
X172815000Y-106325000D03*
X172815000Y-103785000D03*
X172815000Y-101245000D03*
X172815000Y-98705000D03*
X172815000Y-96165000D03*
X165195000Y-96165000D03*
X165195000Y-98705000D03*
X165195000Y-101245000D03*
X165195000Y-103785000D03*
X165195000Y-106325000D03*
X165195000Y-108865000D03*
X165195000Y-111405000D03*
X165195000Y-113945000D03*
X165195000Y-116485000D03*
X165195000Y-119025000D03*
%TD*%
D12*
%TO.C,D44*%
X155754290Y-126108228D03*
D13*
X155754290Y-123533228D03*
%TD*%
D19*
%TO.C,D4*%
X110450000Y-50225000D03*
D20*
X110450000Y-52500000D03*
%TD*%
D10*
%TO.C,U8*%
X127875000Y-75975000D03*
D11*
X125335000Y-75975000D03*
X122795000Y-75975000D03*
X120255000Y-75975000D03*
X117715000Y-75975000D03*
X115175000Y-75975000D03*
X112635000Y-75975000D03*
X110095000Y-75975000D03*
X110095000Y-83595000D03*
X112635000Y-83595000D03*
X115175000Y-83595000D03*
X117715000Y-83595000D03*
X120255000Y-83595000D03*
X122795000Y-83595000D03*
X125335000Y-83595000D03*
X127875000Y-83595000D03*
%TD*%
D16*
%TO.C,P3*%
X140530000Y-131575000D03*
D17*
X137990000Y-131575000D03*
X135450000Y-131575000D03*
X132910000Y-131575000D03*
X130370000Y-131575000D03*
X127830000Y-131575000D03*
X125290000Y-131575000D03*
X122750000Y-131575000D03*
X120210000Y-131575000D03*
X117670000Y-131575000D03*
%TD*%
D18*
%TO.C,D33*%
X122150000Y-92000000D03*
X122150000Y-96200000D03*
%TD*%
D12*
%TO.C,D14*%
X99020000Y-126185000D03*
D13*
X99020000Y-123610000D03*
%TD*%
D12*
%TO.C,D10*%
X85416062Y-126176456D03*
D13*
X85416062Y-123601456D03*
%TD*%
D12*
%TO.C,D1*%
X113050000Y-106950000D03*
D13*
X113050000Y-104375000D03*
%TD*%
D14*
%TO.C,U4*%
X164625000Y-92775000D03*
D15*
X164625000Y-90235000D03*
X164625000Y-87695000D03*
X164625000Y-85155000D03*
X164625000Y-82615000D03*
X164625000Y-80075000D03*
X164625000Y-77535000D03*
X157005000Y-77535000D03*
X157005000Y-80075000D03*
X157005000Y-82615000D03*
X157005000Y-85155000D03*
X157005000Y-87695000D03*
X157005000Y-90235000D03*
X157005000Y-92775000D03*
%TD*%
D12*
%TO.C,D39*%
X124000000Y-105800000D03*
D13*
X124000000Y-103225000D03*
%TD*%
D12*
%TO.C,D6*%
X144400000Y-106950000D03*
D13*
X144400000Y-104375000D03*
%TD*%
D19*
%TO.C,D3*%
X107050000Y-50225000D03*
D20*
X107050000Y-52500000D03*
%TD*%
D18*
%TO.C,D32*%
X125600000Y-92000000D03*
X125600000Y-96200000D03*
%TD*%
D16*
%TO.C,P2*%
X140530000Y-129025000D03*
D17*
X137990000Y-129025000D03*
X135450000Y-129025000D03*
X132910000Y-129025000D03*
X130370000Y-129025000D03*
X127830000Y-129025000D03*
X125290000Y-129025000D03*
X122750000Y-129025000D03*
X120210000Y-129025000D03*
X117670000Y-129025000D03*
%TD*%
D12*
%TO.C,D42*%
X148954290Y-126108228D03*
D13*
X148954290Y-123533228D03*
%TD*%
D12*
%TO.C,D34*%
X141000000Y-105800000D03*
D13*
X141000000Y-103225000D03*
%TD*%
D12*
%TO.C,D41*%
X117200000Y-105800000D03*
D13*
X117200000Y-103225000D03*
%TD*%
D12*
%TO.C,D35*%
X137600000Y-105800000D03*
D13*
X137600000Y-103225000D03*
%TD*%
D18*
%TO.C,D27*%
X142850000Y-92000000D03*
X142850000Y-96200000D03*
%TD*%
D12*
%TO.C,D18*%
X109220000Y-126185000D03*
D13*
X109220000Y-123610000D03*
%TD*%
D10*
%TO.C,U5*%
X148825000Y-75975000D03*
D11*
X146285000Y-75975000D03*
X143745000Y-75975000D03*
X141205000Y-75975000D03*
X138665000Y-75975000D03*
X136125000Y-75975000D03*
X133585000Y-75975000D03*
X131045000Y-75975000D03*
X131045000Y-83595000D03*
X133585000Y-83595000D03*
X136125000Y-83595000D03*
X138665000Y-83595000D03*
X141205000Y-83595000D03*
X143745000Y-83595000D03*
X146285000Y-83595000D03*
X148825000Y-83595000D03*
%TD*%
D12*
%TO.C,D47*%
X165954290Y-126108228D03*
D13*
X165954290Y-123533228D03*
%TD*%
D12*
%TO.C,D17*%
X105820000Y-126185000D03*
D13*
X105820000Y-123610000D03*
%TD*%
M02*
